<?xml version="1.0" ?><svg height="24px" version="1.1" viewBox="0 0 24 24" width="24px" xmlns="http://www.w3.org/2000/svg" xmlns:xlink="http://www.w3.org/1999/xlink"><title/><desc/><defs/><g fill="none" fill-rule="evenodd" id="MiMedia---iOS/Android" stroke="none" stroke-width="1"><g fill="#696969" id="НЕЗААПРУВЛЕННЫЕ-и-НЕСОХРАНЕННЫЕ" transform="translate(-275.000000, -881.000000)"><g id="Group-7" transform="translate(275.000000, 881.000000)"><path d="M22.602,6.2715 C22.391,5.8665 21.709,5.2895 21.268,5.1835 C21.255,5.1805 21.243,5.1775 21.23,5.1745 C19.135,2.3465 15.79,0.4995 12,0.4995 C8.198,0.4995 4.845,2.3585 2.751,5.2015 C2.278,5.3725 1.614,5.8615 1.411,6.2465 C0.489,8.0025 0,9.9665 0,12.0005 C0,13.9705 0.46,15.8765 1.328,17.5925 C1.529,17.9905 2.222,18.5815 2.722,18.7955 C4.815,21.6485 8.191,23.4995 12,23.4995 C15.801,23.4995 19.172,21.6555 21.265,18.8135 C21.751,18.6485 22.472,17.9905 22.688,17.5605 C23.546,15.8535 24,13.9585 24,12.0005 C24,9.9765 23.516,8.0215 22.602,6.2715 L22.602,6.2715 Z M14.838,21.5905 C15.17,21.0825 15.469,20.4845 15.732,19.8125 C16.752,19.7065 17.75,19.5555 18.771,19.3615 C17.651,20.3915 16.307,21.1575 14.838,21.5905 L14.838,21.5905 Z M12,21.9995 C11.278,21.9995 10.553,21.2365 9.951,19.9455 C10.614,19.9825 11.293,20.0005 12,20.0005 C12.708,20.0005 13.387,19.9825 14.049,19.9465 C13.448,21.2365 12.723,21.9995 12,21.9995 L12,21.9995 Z M5.23,19.3605 C6.248,19.5545 7.248,19.7055 8.268,19.8125 C8.531,20.4845 8.831,21.0825 9.162,21.5905 C7.693,21.1575 6.35,20.3925 5.23,19.3605 L5.23,19.3605 Z M8.263,4.2065 C7.248,4.3125 6.245,4.4485 5.231,4.6405 C6.352,3.6095 7.694,2.8425 9.162,2.4095 C8.828,2.9215 8.527,3.5275 8.263,4.2065 L8.263,4.2065 Z M12,1.9995 C12.722,1.9995 13.444,2.7715 14.044,4.0585 C13.384,4.0225 12.709,4.0005 12,4.0005 C11.29,4.0005 10.618,4.0275 9.953,4.0635 C10.555,2.7735 11.278,1.9995 12,1.9995 L12,1.9995 Z M18.772,4.6415 C17.749,4.4465 16.75,4.2955 15.73,4.1895 C15.467,3.5175 15.17,2.9175 14.838,2.4085 C16.307,2.8425 17.651,3.6085 18.772,4.6415 L18.772,4.6415 Z M21.361,15.6035 C20.874,16.0345 20.245,16.2455 19.375,16.2455 C17.488,16.2455 14.293,12.3805 14.293,12.3805 C14.115,12.1755 13.82,12.1715 13.636,12.3785 L12.171,14.0235 C12.078,14.1285 11.936,14.1235 11.854,14.0145 L9.371,10.7395 C9.202,10.5165 8.93,10.5195 8.761,10.7415 C8.761,10.7415 8.133,11.5685 7.913,11.8135 C6.505,13.3825 4.904,15.3095 3.398,15.1005 C2.936,15.0365 2.575,14.7945 2.291,14.4565 C2.099,13.6615 2,12.8385 2,12.0005 C2,10.3285 2.398,8.7205 3.138,7.2745 C3.127,7.2835 3.11,7.2955 3.101,7.3035 C3.115,7.2905 3.132,7.2725 3.182,7.1765 C3.165,7.2085 3.154,7.2425 3.138,7.2745 C3.171,7.2465 3.204,7.2185 3.249,7.1865 C3.332,7.1275 3.426,7.0735 3.356,7.0905 C6.345,6.3755 8.89,6.0005 12,6.0005 C15.128,6.0005 17.642,6.3735 20.669,7.0975 C20.657,7.0875 20.64,7.0735 20.629,7.0665 C20.655,7.0845 20.685,7.0995 20.799,7.1275 C20.755,7.1165 20.713,7.1075 20.669,7.0975 C20.695,7.1165 20.72,7.1345 20.751,7.1605 C20.809,7.2095 20.868,7.2715 20.829,7.1975 C21.594,8.6625 22,10.3005 22,12.0005 C22,13.2495 21.781,14.4645 21.361,15.6035 L21.361,15.6035 Z M18.5254,8.0812 C17.8854,8.3402 17.9064,9.3702 18.3474,9.9962 C18.9504,10.8542 19.5014,10.8072 19.8844,10.7222 C20.4154,10.6042 20.4914,9.7002 20.2514,9.1042 C19.9174,8.2802 19.1654,7.8222 18.5254,8.0812 L18.5254,8.0812 Z" id="Combined-Shape"/></g></g></g></svg>